<svg width="28" height="28" viewBox="0 0 28 28" fill="none" xmlns="http://www.w3.org/2000/svg">
<path d="M7.49981 1H20.5002C22.224 1 23.8773 1.6848 25.0963 2.90375C26.3152 4.1227 27 5.77595 27 7.49981V20.5002C27 22.224 26.3152 23.8773 25.0963 25.0963C23.8773 26.3152 22.224 27 20.5002 27H7.49981C5.77595 27 4.1227 26.3152 2.90375 25.0963C1.6848 23.8773 1 22.224 1 20.5002V7.49981C1 5.77595 1.6848 4.1227 2.90375 2.90375C4.1227 1.6848 5.77595 1 7.49981 1Z" stroke="white" stroke-width="1.5" stroke-linecap="round" stroke-linejoin="round"/>
<path d="M19.1998 13.1803C19.3603 14.2623 19.1755 15.3673 18.6718 16.3382C18.168 17.3091 17.371 18.0965 16.3939 18.5882C15.4169 19.08 14.3097 19.2512 13.2298 19.0775C12.1499 18.9037 11.1523 18.3938 10.3788 17.6204C9.60541 16.847 9.09555 15.8493 8.92179 14.7694C8.74803 13.6895 8.91921 12.5823 9.411 11.6053C9.90278 10.6283 10.6901 9.83123 11.661 9.32749C12.6319 8.82375 13.7369 8.63898 14.8189 8.79947C15.9225 8.96316 16.9441 9.47741 17.733 10.2663C18.5218 11.0551 19.0361 12.0768 19.1998 13.1803Z" stroke="white" stroke-width="1.5" stroke-linecap="round" stroke-linejoin="round"/>
</svg>
