<svg width="224" height="31" viewBox="0 0 224 31" fill="none" xmlns="http://www.w3.org/2000/svg">
<path d="M100.984 13.3682C99.129 13.3682 97.6129 14.8682 97.6129 16.7392C97.6129 18.6102 99.1129 20.1102 100.984 20.1102H108.226V23.9811H100.984C97 23.9811 93.7419 20.7392 93.7419 16.7392C93.7419 12.7392 97 9.49728 100.984 9.49728H111.597V2.75534H100.984C93.2742 2.75534 87 9.02954 87 16.7392C87 24.4489 93.2742 30.7231 100.984 30.7231H114.968V13.3682H100.984Z" fill="#0087A6"/>
<path d="M81.4677 2.75534C81.4677 2.75534 76.371 15.8844 73.9032 22.1908C71.8226 16.9973 66.9677 4.86824 66.9677 4.86824C66.4677 3.59405 65.2258 2.75534 63.8387 2.75534H40.5C37.8548 2.75534 35.371 3.51341 33.2581 4.80373V2.75534H26.5161V23.9811H13.9677C9.96774 23.9811 6.72581 20.7392 6.72581 16.7392C6.72581 12.7392 9.96774 9.49728 13.9677 9.49728H22.4516V2.75534H13.9677C6.27419 2.75534 0 9.02954 0 16.7392C0 24.4489 6.27419 30.7231 13.9839 30.7231H33.2742V16.7392C33.2742 12.7553 36.5161 9.49728 40.5161 9.49728H47.7581V30.7231H54.5V9.49728H61.5806C62.9516 12.9328 69.2258 28.5941 69.2258 28.5941C69.7419 29.8682 70.9677 30.707 72.3548 30.707H75.5323C76.9194 30.707 78.1774 29.8521 78.6774 28.5618L88.6935 2.75534H81.4677Z" fill="#75B3C9"/>
<path d="M125.177 5.25534C125.145 5.07792 125.097 4.9005 124.984 4.75534C124.887 4.61018 124.774 4.46502 124.629 4.35212C124.484 4.23921 124.323 4.14244 124.145 4.07792C123.968 4.01341 123.774 3.98115 123.581 3.98115C123.226 3.98115 122.919 4.04566 122.661 4.19083C122.419 4.33599 122.21 4.51341 122.048 4.75534C121.887 4.99728 121.774 5.25534 121.71 5.54566C121.645 5.83599 121.597 6.15857 121.597 6.46502C121.597 6.77147 121.629 7.06179 121.71 7.35212C121.774 7.64244 121.887 7.9005 122.048 8.12631C122.21 8.35212 122.403 8.54566 122.661 8.6747C122.919 8.81986 123.226 8.88437 123.581 8.88437C124.065 8.88437 124.452 8.73921 124.726 8.43276C125 8.12631 125.177 7.73921 125.226 7.25534H126.774C126.726 7.70695 126.629 8.12631 126.452 8.48115C126.274 8.85212 126.065 9.15857 125.774 9.41663C125.5 9.6747 125.177 9.86825 124.806 10.0134C124.435 10.1586 124.016 10.2231 123.581 10.2231C123.016 10.2231 122.516 10.1263 122.081 9.93276C121.645 9.73921 121.274 9.46502 120.968 9.12631C120.661 8.7876 120.435 8.38437 120.258 7.93276C120.097 7.46502 120.016 6.98115 120.016 6.46502C120.016 5.94889 120.097 5.43276 120.258 4.96502C120.419 4.49728 120.661 4.09405 120.968 3.73921C121.274 3.4005 121.645 3.12631 122.081 2.93276C122.516 2.73921 123.016 2.64244 123.581 2.64244C123.984 2.64244 124.355 2.70695 124.71 2.81986C125.065 2.93276 125.387 3.11018 125.661 3.31986C125.935 3.54566 126.177 3.81986 126.355 4.14244C126.532 4.46502 126.661 4.83599 126.694 5.25534H125.145H125.177Z" fill="white"/>
<path d="M127.548 6.46502C127.548 5.93276 127.629 5.43276 127.79 4.96502C127.952 4.49728 128.194 4.09405 128.484 3.73921C128.79 3.4005 129.161 3.12631 129.597 2.93276C130.032 2.73921 130.532 2.64244 131.097 2.64244C131.661 2.64244 132.161 2.73921 132.597 2.93276C133.032 3.12631 133.403 3.4005 133.71 3.73921C134.016 4.07792 134.242 4.49728 134.403 4.96502C134.565 5.43276 134.645 5.93276 134.645 6.46502C134.645 6.99728 134.565 7.48115 134.403 7.93276C134.242 8.4005 134 8.7876 133.71 9.12631C133.403 9.46502 133.032 9.73921 132.597 9.93276C132.161 10.1263 131.661 10.2231 131.097 10.2231C130.532 10.2231 130.032 10.1263 129.597 9.93276C129.161 9.73921 128.79 9.46502 128.484 9.12631C128.177 8.7876 127.952 8.38437 127.79 7.93276C127.629 7.46502 127.548 6.98115 127.548 6.46502ZM129.145 6.46502C129.145 6.77147 129.177 7.06179 129.258 7.35212C129.323 7.64244 129.435 7.9005 129.597 8.12631C129.758 8.35212 129.952 8.54566 130.21 8.6747C130.468 8.81986 130.758 8.88437 131.129 8.88437C131.5 8.88437 131.79 8.81986 132.048 8.6747C132.306 8.52953 132.5 8.35212 132.661 8.12631C132.823 7.9005 132.935 7.64244 133 7.35212C133.065 7.06179 133.113 6.77147 133.113 6.46502C133.113 6.15857 133.081 5.83599 133 5.54566C132.935 5.23921 132.823 4.98115 132.661 4.75534C132.5 4.52954 132.306 4.33599 132.048 4.19083C131.79 4.04566 131.5 3.98115 131.129 3.98115C130.758 3.98115 130.468 4.04566 130.21 4.19083C129.952 4.33599 129.758 4.51341 129.597 4.75534C129.435 4.99728 129.323 5.25534 129.258 5.54566C129.194 5.83599 129.145 6.15857 129.145 6.46502Z" fill="white"/>
<path d="M139.677 2.81986C140 2.81986 140.29 2.86824 140.548 2.98115C140.806 3.09405 141.032 3.22308 141.226 3.41663C141.419 3.59405 141.548 3.81986 141.645 4.06179C141.742 4.30373 141.79 4.56179 141.79 4.83599C141.79 5.25534 141.694 5.62631 141.516 5.94889C141.339 6.25534 141.048 6.49728 140.645 6.65857C140.839 6.73921 141 6.81986 141.129 6.93276C141.258 7.04566 141.371 7.1747 141.452 7.33599C141.532 7.49728 141.597 7.65857 141.629 7.83599C141.661 8.01341 141.694 8.19083 141.71 8.38437C141.71 8.49728 141.71 8.64244 141.726 8.7876C141.726 8.94889 141.742 9.09405 141.758 9.25534C141.774 9.41663 141.806 9.56179 141.839 9.72308C141.871 9.86824 141.935 9.99728 142 10.0941H140.403C140.355 9.98115 140.323 9.85212 140.29 9.70696C140.274 9.56179 140.242 9.41663 140.226 9.27147C140.21 9.12631 140.194 8.96502 140.177 8.80373C140.177 8.64244 140.145 8.49728 140.129 8.35212C140.081 7.96502 139.968 7.69083 139.79 7.51341C139.613 7.33599 139.323 7.25534 138.919 7.25534H137.323V10.0941H135.726V2.81986H139.677ZM137.371 6.09405H139.113C139.468 6.09405 139.742 6.01341 139.935 5.85212C140.129 5.69083 140.21 5.43276 140.21 5.06179C140.21 4.69083 140.113 4.44889 139.935 4.2876C139.742 4.12631 139.468 4.04566 139.113 4.04566H137.371V6.09405Z" fill="white"/>
<path d="M143.097 2.81986H146.371C146.823 2.81986 147.21 2.88437 147.532 3.01341C147.855 3.14244 148.113 3.31986 148.306 3.52954C148.5 3.73921 148.645 3.99728 148.742 4.27147C148.839 4.54566 148.871 4.83599 148.871 5.12631C148.871 5.41663 148.823 5.70695 148.742 5.99728C148.645 6.27147 148.5 6.52954 148.306 6.73921C148.113 6.94889 147.855 7.12631 147.532 7.25534C147.21 7.38437 146.823 7.44889 146.371 7.44889H144.694V10.0457H143.097V2.81986ZM144.694 6.23921H145.935C146.113 6.23921 146.29 6.23921 146.468 6.19083C146.645 6.15857 146.79 6.11018 146.919 6.02954C147.048 5.94889 147.145 5.83599 147.226 5.70695C147.306 5.56179 147.339 5.38437 147.339 5.14244C147.339 4.9005 147.306 4.72308 147.226 4.57792C147.145 4.43276 147.048 4.31986 146.919 4.25534C146.79 4.1747 146.645 4.12631 146.468 4.09405C146.306 4.06179 146.129 4.06179 145.935 4.06179H144.694V6.23921Z" fill="white"/>
<path d="M149.565 6.46502C149.565 5.93276 149.645 5.43276 149.806 4.96502C149.968 4.49728 150.21 4.09405 150.5 3.73921C150.806 3.4005 151.177 3.12631 151.613 2.93276C152.048 2.73921 152.548 2.64244 153.113 2.64244C153.677 2.64244 154.177 2.73921 154.613 2.93276C155.048 3.12631 155.419 3.4005 155.726 3.73921C156.032 4.07792 156.258 4.49728 156.419 4.96502C156.581 5.43276 156.661 5.93276 156.661 6.46502C156.661 6.99728 156.581 7.48115 156.419 7.93276C156.258 8.4005 156.016 8.7876 155.726 9.12631C155.419 9.46502 155.048 9.73921 154.613 9.93276C154.177 10.1263 153.677 10.2231 153.113 10.2231C152.548 10.2231 152.048 10.1263 151.613 9.93276C151.177 9.73921 150.806 9.46502 150.5 9.12631C150.194 8.7876 149.968 8.38437 149.806 7.93276C149.645 7.46502 149.565 6.98115 149.565 6.46502ZM151.161 6.46502C151.161 6.77147 151.194 7.06179 151.274 7.35212C151.339 7.64244 151.452 7.9005 151.613 8.12631C151.774 8.35212 151.968 8.54566 152.226 8.6747C152.484 8.81986 152.774 8.88437 153.145 8.88437C153.516 8.88437 153.806 8.81986 154.064 8.6747C154.323 8.52953 154.516 8.35212 154.677 8.12631C154.839 7.9005 154.952 7.64244 155.016 7.35212C155.081 7.06179 155.129 6.77147 155.129 6.46502C155.129 6.15857 155.097 5.83599 155.016 5.54566C154.952 5.23921 154.839 4.98115 154.677 4.75534C154.516 4.52954 154.323 4.33599 154.064 4.19083C153.806 4.04566 153.516 3.98115 153.145 3.98115C152.774 3.98115 152.484 4.04566 152.226 4.19083C151.968 4.33599 151.774 4.51341 151.613 4.75534C151.452 4.99728 151.339 5.25534 151.274 5.54566C151.21 5.83599 151.161 6.15857 151.161 6.46502Z" fill="white"/>
<path d="M161.677 2.81986C162 2.81986 162.29 2.86824 162.548 2.98115C162.806 3.09405 163.032 3.22308 163.21 3.41663C163.403 3.59405 163.532 3.81986 163.629 4.06179C163.726 4.30373 163.774 4.56179 163.774 4.83599C163.774 5.25534 163.677 5.62631 163.5 5.94889C163.323 6.25534 163.032 6.49728 162.629 6.65857C162.823 6.73921 162.984 6.81986 163.113 6.93276C163.242 7.04566 163.355 7.1747 163.435 7.33599C163.516 7.49728 163.581 7.65857 163.613 7.83599C163.645 8.01341 163.677 8.19083 163.694 8.38437C163.694 8.49728 163.694 8.64244 163.71 8.7876C163.71 8.94889 163.726 9.09405 163.742 9.25534C163.758 9.41663 163.79 9.56179 163.823 9.72308C163.855 9.86824 163.919 9.99728 163.984 10.0941H162.387C162.339 9.98115 162.306 9.85212 162.274 9.70696C162.258 9.56179 162.226 9.41663 162.21 9.27147C162.194 9.12631 162.177 8.96502 162.161 8.80373C162.161 8.64244 162.129 8.49728 162.113 8.35212C162.065 7.96502 161.952 7.69083 161.774 7.51341C161.597 7.33599 161.306 7.25534 160.903 7.25534H159.306V10.0941H157.71V2.81986H161.677ZM159.371 6.09405H161.113C161.468 6.09405 161.742 6.01341 161.935 5.85212C162.129 5.69083 162.21 5.43276 162.21 5.06179C162.21 4.69083 162.113 4.44889 161.935 4.2876C161.742 4.12631 161.468 4.04566 161.113 4.04566H159.371V6.09405Z" fill="white"/>
<path d="M167.097 2.81986H168.726L171.435 10.0779H169.774L169.226 8.46502H166.516L165.952 10.0779H164.339L167.097 2.81986ZM166.952 7.27147H168.839L167.919 4.61018H167.903L166.968 7.27147H166.952Z" fill="white"/>
<path d="M176.903 5.25534C176.871 5.07792 176.823 4.9005 176.726 4.75534C176.629 4.61018 176.516 4.46502 176.371 4.35212C176.226 4.23921 176.065 4.14244 175.887 4.07792C175.71 4.01341 175.516 3.98115 175.323 3.98115C174.968 3.98115 174.661 4.04566 174.403 4.19083C174.145 4.33599 173.952 4.51341 173.79 4.75534C173.629 4.99728 173.516 5.25534 173.452 5.54566C173.387 5.83599 173.339 6.15857 173.339 6.46502C173.339 6.77147 173.371 7.06179 173.452 7.35212C173.516 7.64244 173.629 7.9005 173.79 8.12631C173.952 8.35212 174.145 8.54566 174.403 8.6747C174.661 8.81986 174.952 8.88437 175.323 8.88437C175.806 8.88437 176.194 8.73921 176.468 8.43276C176.742 8.12631 176.903 7.73921 176.968 7.25534H178.516C178.484 7.70695 178.371 8.12631 178.21 8.48115C178.032 8.85212 177.823 9.15857 177.532 9.41663C177.258 9.6747 176.935 9.86825 176.564 10.0134C176.194 10.1586 175.774 10.2231 175.339 10.2231C174.774 10.2231 174.274 10.1263 173.839 9.93276C173.403 9.73921 173.032 9.46502 172.726 9.12631C172.419 8.7876 172.194 8.38437 172.032 7.93276C171.871 7.46502 171.79 6.98115 171.79 6.46502C171.79 5.94889 171.871 5.43276 172.032 4.96502C172.194 4.49728 172.435 4.09405 172.726 3.73921C173.032 3.4005 173.403 3.12631 173.839 2.93276C174.274 2.73921 174.774 2.64244 175.339 2.64244C175.742 2.64244 176.113 2.70695 176.468 2.81986C176.823 2.93276 177.145 3.11018 177.419 3.31986C177.694 3.54566 177.935 3.81986 178.113 4.14244C178.29 4.46502 178.403 4.83599 178.452 5.25534H176.903Z" fill="white"/>
<path d="M179.597 2.81986H181.194V10.0779H179.597V2.81986Z" fill="white"/>
<path d="M182.274 6.46502C182.274 5.93276 182.355 5.43276 182.516 4.96502C182.677 4.49728 182.919 4.09405 183.21 3.73921C183.516 3.4005 183.887 3.12631 184.323 2.93276C184.758 2.73921 185.258 2.64244 185.823 2.64244C186.387 2.64244 186.887 2.73921 187.323 2.93276C187.758 3.12631 188.129 3.4005 188.435 3.73921C188.742 4.07792 188.968 4.49728 189.129 4.96502C189.29 5.43276 189.371 5.93276 189.371 6.46502C189.371 6.99728 189.29 7.48115 189.129 7.93276C188.968 8.4005 188.726 8.7876 188.435 9.12631C188.129 9.46502 187.758 9.73921 187.323 9.93276C186.887 10.1263 186.387 10.2231 185.823 10.2231C185.258 10.2231 184.758 10.1263 184.323 9.93276C183.887 9.73921 183.516 9.46502 183.21 9.12631C182.903 8.7876 182.677 8.38437 182.516 7.93276C182.355 7.46502 182.274 6.98115 182.274 6.46502ZM183.871 6.46502C183.871 6.77147 183.903 7.06179 183.984 7.35212C184.048 7.64244 184.161 7.9005 184.323 8.12631C184.484 8.35212 184.677 8.54566 184.935 8.6747C185.194 8.81986 185.484 8.88437 185.855 8.88437C186.226 8.88437 186.516 8.81986 186.774 8.6747C187.032 8.52953 187.226 8.35212 187.387 8.12631C187.548 7.9005 187.661 7.64244 187.726 7.35212C187.79 7.06179 187.839 6.77147 187.839 6.46502C187.839 6.15857 187.806 5.83599 187.726 5.54566C187.661 5.23921 187.548 4.98115 187.387 4.75534C187.226 4.52954 187.032 4.33599 186.774 4.19083C186.516 4.04566 186.226 3.98115 185.855 3.98115C185.484 3.98115 185.194 4.04566 184.935 4.19083C184.677 4.33599 184.484 4.51341 184.323 4.75534C184.161 4.99728 184.048 5.25534 183.984 5.54566C183.919 5.83599 183.871 6.15857 183.871 6.46502ZM186.081 2.15857H185.081L186.048 0.723083H187.645L186.081 2.15857Z" fill="white"/>
<path d="M190.5 2.81986H192.081L195.113 7.69083H195.129V2.81986H196.629V10.0779H195.032L192.016 5.22308H192V10.0779H190.5V2.81986Z" fill="white"/>
<path d="M120.339 12.9811H124.242C124.565 12.9811 124.855 13.0295 125.113 13.1424C125.371 13.2553 125.597 13.3844 125.79 13.5779C125.984 13.7553 126.113 13.9811 126.21 14.2231C126.306 14.465 126.355 14.7231 126.355 14.9973C126.355 15.4166 126.258 15.7876 126.081 16.1102C125.903 16.4166 125.613 16.6586 125.21 16.8199C125.403 16.9005 125.565 16.9811 125.694 17.0941C125.823 17.207 125.935 17.336 126.016 17.4973C126.097 17.6586 126.161 17.8199 126.194 17.9973C126.226 18.1747 126.258 18.3521 126.274 18.5457C126.274 18.6586 126.274 18.8037 126.29 18.9489C126.29 19.1102 126.306 19.2553 126.323 19.4166C126.323 19.5779 126.371 19.7231 126.403 19.8844C126.435 20.0295 126.5 20.1586 126.565 20.2553H124.968C124.919 20.1424 124.887 20.0134 124.871 19.8682C124.839 19.7231 124.823 19.5779 124.806 19.4328C124.806 19.2876 124.774 19.1263 124.758 18.965C124.758 18.8037 124.726 18.6586 124.71 18.5134C124.661 18.1263 124.532 17.8521 124.371 17.6747C124.21 17.4973 123.903 17.4166 123.5 17.4166H121.903V20.2553H120.306V12.9973L120.339 12.9811ZM121.935 16.2553H123.677C124.032 16.2553 124.306 16.1747 124.5 16.0134C124.694 15.8521 124.774 15.5941 124.774 15.2231C124.774 14.8521 124.677 14.6102 124.5 14.4489C124.306 14.2876 124.032 14.207 123.677 14.207H121.935V16.2553Z" fill="white"/>
<path d="M129.645 12.9811H131.274L133.984 20.2392H132.323L131.774 18.6263H129.064L128.5 20.2392H126.887L129.645 12.9811ZM129.5 17.4328H131.371L130.452 14.7715H130.435L129.5 17.4328Z" fill="white"/>
<path d="M134.629 12.9811H137.758C138.226 12.9811 138.661 13.0618 139.065 13.207C139.468 13.3521 139.823 13.5779 140.113 13.8844C140.403 14.1747 140.645 14.5618 140.806 14.9973C140.968 15.4489 141.048 15.965 141.048 16.5779C141.048 17.1102 140.984 17.5941 140.839 18.0457C140.71 18.4973 140.5 18.8844 140.226 19.207C139.952 19.5295 139.613 19.7876 139.194 19.9811C138.79 20.1747 138.306 20.2553 137.742 20.2553H134.613V12.9973L134.629 12.9811ZM137.645 18.9005C137.871 18.9005 138.097 18.8682 138.323 18.7876C138.532 18.707 138.726 18.5941 138.903 18.4166C139.081 18.2392 139.21 18.0134 139.306 17.7392C139.403 17.465 139.452 17.1263 139.452 16.7231C139.452 16.3521 139.419 16.0295 139.339 15.7392C139.274 15.4489 139.145 15.1908 138.984 14.9811C138.823 14.7715 138.613 14.6102 138.339 14.4973C138.065 14.3844 137.742 14.336 137.355 14.336H136.21V18.9005H137.645Z" fill="white"/>
<path d="M142.161 12.9811H143.758V20.2392H142.161V12.9811Z" fill="white"/>
<path d="M144.839 16.6263C144.839 16.0941 144.919 15.5941 145.081 15.1263C145.242 14.6586 145.484 14.2553 145.774 13.9005C146.081 13.5618 146.452 13.2876 146.887 13.0941C147.323 12.9005 147.823 12.8037 148.387 12.8037C148.952 12.8037 149.452 12.9005 149.887 13.0941C150.323 13.2876 150.694 13.5618 151 13.9005C151.306 14.2392 151.532 14.6586 151.694 15.1263C151.855 15.5941 151.935 16.0941 151.935 16.6263C151.935 17.1586 151.855 17.6424 151.694 18.0941C151.532 18.5618 151.29 18.9489 151 19.2876C150.694 19.6263 150.323 19.9005 149.887 20.0941C149.452 20.2876 148.952 20.3844 148.387 20.3844C147.823 20.3844 147.323 20.2876 146.887 20.0941C146.452 19.9005 146.081 19.6263 145.774 19.2876C145.468 18.9489 145.242 18.5457 145.081 18.0941C144.919 17.6263 144.839 17.1424 144.839 16.6263ZM146.435 16.6263C146.435 16.9328 146.468 17.2231 146.548 17.5134C146.613 17.8037 146.726 18.0618 146.887 18.2876C147.048 18.5134 147.242 18.707 147.5 18.836C147.758 18.9811 148.048 19.0457 148.419 19.0457C148.79 19.0457 149.081 18.9811 149.339 18.836C149.597 18.6908 149.79 18.5134 149.952 18.2876C150.113 18.0618 150.226 17.8037 150.29 17.5134C150.355 17.2231 150.403 16.9328 150.403 16.6263C150.403 16.3199 150.371 15.9973 150.29 15.707C150.226 15.4166 150.113 15.1424 149.952 14.9166C149.79 14.6908 149.597 14.4973 149.339 14.3521C149.081 14.207 148.79 14.1424 148.419 14.1424C148.048 14.1424 147.758 14.207 147.5 14.3521C147.242 14.4973 147.048 14.6747 146.887 14.9166C146.726 15.1424 146.613 15.4166 146.548 15.707C146.484 15.9973 146.435 16.3199 146.435 16.6263Z" fill="white"/>
<path d="M155.871 12.9811H161.29V14.3199H157.468V15.8682H160.984V17.1102H157.468V18.8844H161.371V20.2231H155.871V12.965V12.9811Z" fill="white"/>
<path d="M166.887 14.3199H164.71V12.9811H170.645V14.3199H168.468V20.2392H166.871V14.3199H166.887Z" fill="white"/>
<path d="M171.484 12.9811H176.903V14.3199H173.081V15.8682H176.597V17.1102H173.081V18.8844H176.984V20.2231H171.484V12.965V12.9811Z" fill="white"/>
<path d="M178.065 12.9811H179.661V18.9005H183.194V20.2392H178.065V12.9811Z" fill="white"/>
<path d="M184.097 12.9811H189.516V14.3199H185.694V15.8682H189.21V17.1102H185.694V18.8844H189.597V20.2231H184.097V12.965V12.9811Z" fill="white"/>
<path d="M194.048 20.2231H192.258L189.903 12.965H191.548L193.161 18.0618H193.177L194.806 12.965H196.452L194.048 20.2231Z" fill="white"/>
<path d="M197.081 12.9811H198.677V20.2392H197.081V12.9811Z" fill="white"/>
<path d="M201.161 17.8199C201.161 18.0618 201.21 18.2715 201.29 18.4328C201.371 18.5941 201.5 18.7392 201.645 18.836C201.79 18.9489 201.968 19.0134 202.161 19.0779C202.355 19.1263 202.565 19.1586 202.774 19.1586C202.919 19.1586 203.065 19.1586 203.226 19.1263C203.387 19.0941 203.548 19.0618 203.677 18.9811C203.823 18.9166 203.935 18.8199 204.032 18.707C204.129 18.594 204.177 18.4328 204.177 18.2553C204.177 18.0618 204.113 17.9005 203.984 17.7715C203.855 17.6424 203.694 17.5457 203.484 17.465C203.274 17.3844 203.048 17.3037 202.79 17.2553C202.532 17.1908 202.274 17.1263 202 17.0618C201.726 16.9973 201.468 16.9166 201.21 16.8199C200.952 16.7231 200.726 16.5941 200.516 16.4328C200.306 16.2715 200.145 16.0779 200.016 15.8521C199.887 15.6263 199.823 15.336 199.823 14.9973C199.823 14.6263 199.903 14.3037 200.064 14.0295C200.226 13.7553 200.435 13.5295 200.694 13.3521C200.952 13.1747 201.242 13.0295 201.564 12.9489C201.887 12.8682 202.21 12.8199 202.532 12.8199C202.919 12.8199 203.274 12.8682 203.629 12.9489C203.984 13.0295 204.29 13.1747 204.564 13.3682C204.839 13.5618 205.048 13.8037 205.21 14.0941C205.371 14.3844 205.452 14.7392 205.452 15.1586H203.903C203.903 14.9489 203.839 14.7553 203.774 14.6263C203.694 14.4811 203.597 14.3682 203.468 14.2876C203.339 14.207 203.194 14.1424 203.016 14.1102C202.839 14.0779 202.661 14.0618 202.484 14.0618C202.355 14.0618 202.226 14.0618 202.097 14.1102C201.968 14.1424 201.855 14.1908 201.742 14.2553C201.629 14.3199 201.548 14.4166 201.484 14.5134C201.419 14.6263 201.387 14.7392 201.387 14.9005C201.387 15.0618 201.419 15.1586 201.468 15.2392C201.516 15.3199 201.629 15.4005 201.79 15.4811C201.952 15.5457 202.177 15.6263 202.452 15.707C202.726 15.7876 203.097 15.8844 203.548 15.9973C203.629 16.0134 203.758 16.0457 203.887 16.0779C204.032 16.1102 204.177 16.1586 204.339 16.2231C204.5 16.2876 204.661 16.3682 204.823 16.465C204.984 16.5618 205.129 16.6908 205.258 16.836C205.387 16.9811 205.5 17.1586 205.581 17.3682C205.661 17.5779 205.71 17.8199 205.71 18.0779C205.71 18.4166 205.645 18.7231 205.516 18.9973C205.387 19.2876 205.194 19.5295 204.935 19.7392C204.677 19.9489 204.371 20.1102 203.984 20.2231C203.613 20.336 203.177 20.4005 202.677 20.4005C202.274 20.4005 201.887 20.3521 201.516 20.2553C201.145 20.1586 200.806 19.9973 200.532 19.7876C200.242 19.5779 200.016 19.3037 199.855 18.9811C199.677 18.6586 199.597 18.2715 199.613 17.8199H201.161Z" fill="white"/>
<path d="M206.661 12.9811H208.258V20.2392H206.661V12.9811Z" fill="white"/>
<path d="M209.339 16.6263C209.339 16.0941 209.419 15.5941 209.581 15.1263C209.742 14.6586 209.984 14.2553 210.274 13.9005C210.581 13.5618 210.952 13.2876 211.387 13.0941C211.823 12.9005 212.323 12.8037 212.887 12.8037C213.452 12.8037 213.952 12.9005 214.387 13.0941C214.823 13.2876 215.194 13.5618 215.5 13.9005C215.806 14.2392 216.032 14.6586 216.194 15.1263C216.355 15.5941 216.435 16.0941 216.435 16.6263C216.435 17.1586 216.355 17.6424 216.194 18.0941C216.032 18.5618 215.79 18.9489 215.5 19.2876C215.194 19.6263 214.823 19.9005 214.387 20.0941C213.952 20.2876 213.452 20.3844 212.887 20.3844C212.323 20.3844 211.823 20.2876 211.387 20.0941C210.952 19.9005 210.581 19.6263 210.274 19.2876C209.968 18.9489 209.742 18.5457 209.581 18.0941C209.419 17.6263 209.339 17.1424 209.339 16.6263ZM210.935 16.6263C210.935 16.9328 210.968 17.2231 211.048 17.5134C211.113 17.8037 211.226 18.0618 211.387 18.2876C211.548 18.5134 211.742 18.707 212 18.836C212.258 18.9811 212.548 19.0457 212.919 19.0457C213.29 19.0457 213.581 18.9811 213.839 18.836C214.097 18.6908 214.29 18.5134 214.452 18.2876C214.613 18.0618 214.726 17.8037 214.79 17.5134C214.855 17.2231 214.903 16.9328 214.903 16.6263C214.903 16.3199 214.871 15.9973 214.79 15.707C214.726 15.4166 214.613 15.1424 214.452 14.9166C214.29 14.6908 214.097 14.4973 213.839 14.3521C213.581 14.207 213.29 14.1424 212.919 14.1424C212.548 14.1424 212.258 14.207 212 14.3521C211.742 14.4973 211.548 14.6747 211.387 14.9166C211.226 15.1424 211.113 15.4166 211.048 15.707C210.984 15.9973 210.935 16.3199 210.935 16.6263ZM213.145 12.3199H212.145L213.113 10.8844H214.71L213.145 12.3199Z" fill="white"/>
<path d="M217.564 12.9811H219.145L222.177 17.8521H222.194V12.9811H223.694V20.2392H222.097L219.081 15.3844H219.065V20.2392H217.564V12.9811Z" fill="white"/>
<path d="M120.339 23.1263H123.468C123.935 23.1263 124.371 23.207 124.774 23.3521C125.177 23.4973 125.532 23.7231 125.823 24.0295C126.113 24.3199 126.355 24.707 126.516 25.1424C126.677 25.5941 126.758 26.1102 126.758 26.7231C126.758 27.2553 126.694 27.7392 126.548 28.1908C126.419 28.6424 126.21 29.0295 125.935 29.3521C125.661 29.6747 125.323 29.9328 124.903 30.1263C124.5 30.3199 124.016 30.4005 123.452 30.4005H120.323V23.1424L120.339 23.1263ZM123.355 29.0457C123.581 29.0457 123.806 29.0134 124.032 28.9328C124.242 28.8521 124.435 28.7392 124.613 28.5618C124.79 28.3844 124.919 28.1586 125.016 27.8844C125.113 27.6102 125.161 27.2715 125.161 26.8682C125.161 26.4973 125.129 26.1747 125.048 25.8844C124.984 25.5941 124.855 25.336 124.694 25.1263C124.532 24.9166 124.323 24.7553 124.048 24.6424C123.79 24.5295 123.452 24.4811 123.065 24.4811H121.919V29.0457H123.355Z" fill="white"/>
<path d="M127.871 23.1263H133.29V24.465H129.468V26.0134H132.984V27.2553H129.468V29.0295H133.371V30.3682H127.871V23.1102V23.1263Z" fill="white"/>
<path d="M142.516 29.5618C142.226 29.9328 141.919 30.1908 141.564 30.336C141.226 30.4811 140.871 30.5618 140.516 30.5618C139.952 30.5618 139.452 30.465 139.016 30.2715C138.581 30.0779 138.21 29.8037 137.903 29.465C137.597 29.1263 137.371 28.7231 137.21 28.2715C137.048 27.8037 136.968 27.3199 136.968 26.8037C136.968 26.2876 137.048 25.7715 137.21 25.3037C137.371 24.836 137.613 24.4328 137.903 24.0779C138.21 23.7392 138.581 23.465 139.016 23.2715C139.452 23.0779 139.952 22.9811 140.516 22.9811C140.887 22.9811 141.242 23.0295 141.597 23.1424C141.952 23.2553 142.258 23.4166 142.532 23.6424C142.806 23.8521 143.048 24.1263 143.226 24.4489C143.419 24.7715 143.532 25.1263 143.565 25.5457H142.032C141.935 25.1424 141.758 24.836 141.484 24.6263C141.21 24.4166 140.887 24.3199 140.5 24.3199C140.113 24.3199 139.839 24.3844 139.581 24.5295C139.323 24.6747 139.129 24.8521 138.968 25.0941C138.806 25.3199 138.694 25.5941 138.629 25.8844C138.564 26.1908 138.516 26.4973 138.516 26.8037C138.516 27.1102 138.548 27.4005 138.629 27.6908C138.694 27.9811 138.806 28.2392 138.968 28.465C139.129 28.6908 139.323 28.8844 139.581 29.0134C139.839 29.1586 140.129 29.2231 140.5 29.2231C141.016 29.2231 141.435 29.0941 141.71 28.8199C142 28.5457 142.177 28.1586 142.226 27.6586H140.613V26.465H143.661V30.3844H142.645L142.484 29.5618H142.516Z" fill="white"/>
<path d="M146.968 23.1263H148.597L151.306 30.3844H149.645L149.097 28.7715H146.387L145.823 30.3844H144.21L146.968 23.1263ZM146.823 27.5779H148.694L147.774 24.9166H147.758L146.823 27.5779Z" fill="white"/>
<path d="M151.935 23.1263H153.532V29.0457H157.064V30.3844H151.935V23.1263Z" fill="white"/>
<path d="M157.968 23.1263H159.564V30.3844H157.968V23.1263Z" fill="white"/>
<path d="M165.79 25.5618C165.758 25.3844 165.71 25.207 165.613 25.0618C165.516 24.9166 165.403 24.7715 165.258 24.6586C165.113 24.5457 164.952 24.4489 164.774 24.3844C164.597 24.3199 164.403 24.2876 164.21 24.2876C163.855 24.2876 163.548 24.3521 163.29 24.4973C163.032 24.6424 162.839 24.8199 162.677 25.0618C162.516 25.2876 162.403 25.5618 162.339 25.8521C162.274 26.1586 162.226 26.465 162.226 26.7715C162.226 27.0779 162.258 27.3682 162.339 27.6586C162.403 27.9489 162.516 28.207 162.677 28.4328C162.839 28.6586 163.032 28.8521 163.29 28.9811C163.548 29.1263 163.839 29.1908 164.21 29.1908C164.694 29.1908 165.081 29.0457 165.355 28.7392C165.629 28.4328 165.79 28.0457 165.855 27.5618H167.403C167.371 28.0134 167.258 28.4328 167.097 28.7876C166.919 29.1586 166.71 29.465 166.419 29.7231C166.145 29.9811 165.823 30.1747 165.452 30.3199C165.081 30.465 164.661 30.5295 164.226 30.5295C163.661 30.5295 163.161 30.4328 162.726 30.2392C162.29 30.0457 161.919 29.7715 161.613 29.4328C161.306 29.0941 161.081 28.6908 160.919 28.2392C160.758 27.7715 160.677 27.2876 160.677 26.7715C160.677 26.2553 160.758 25.7392 160.919 25.2715C161.081 24.8037 161.323 24.4005 161.613 24.0457C161.919 23.707 162.29 23.4328 162.726 23.2392C163.161 23.0457 163.661 22.9489 164.226 22.9489C164.629 22.9489 165 23.0134 165.355 23.1263C165.71 23.2392 166.032 23.4005 166.306 23.6263C166.581 23.8521 166.823 24.1263 167 24.4489C167.177 24.7715 167.29 25.1424 167.339 25.5618H165.79Z" fill="white"/>
<path d="M168.484 23.1263H170.081V30.3844H168.484V23.1263Z" fill="white"/>
<path d="M173.452 23.1263H175.081L177.79 30.3844H176.129L175.581 28.7715H172.871L172.306 30.3844H170.694L173.452 23.1263ZM173.306 27.5779H175.177L174.258 24.9166H174.242L173.306 27.5779Z" fill="white"/>
</svg>
