<svg width="32" height="32" viewBox="0 0 32 32" fill="none" xmlns="http://www.w3.org/2000/svg">
<path d="M29 8.6C28.9979 7.91107 28.7234 7.25094 28.2362 6.7638C27.7491 6.27665 27.0889 6.00206 26.4 6H5.6C4.91107 6.00206 4.25094 6.27665 3.7638 6.7638C3.27665 7.25094 3.00206 7.91107 3 8.6M29 8.6V24.2C28.9979 24.8889 28.7234 25.5491 28.2362 26.0362C27.7491 26.5234 27.0889 26.7979 26.4 26.8H5.6C4.91107 26.7979 4.25094 26.5234 3.7638 26.0362C3.27665 25.5491 3.00206 24.8889 3 24.2V8.6M29 8.6L16 17.7L3 8.6" stroke="white" stroke-width="1.5" stroke-linecap="round" stroke-linejoin="round"/>
</svg>
