<svg width="28" height="21" viewBox="0 0 28 21" fill="none" xmlns="http://www.w3.org/2000/svg">
<path d="M26.4547 3.85994C26.3144 3.29908 26.0285 2.7852 25.6259 2.37021C25.2234 1.95522 24.7184 1.65383 24.1621 1.49648C22.1301 1 13.9973 1 13.9973 1C13.9973 1 5.86923 1 3.83653 1.54393C3.28021 1.70128 2.77526 2.00267 2.37271 2.41766C1.97016 2.83265 1.68426 3.34653 1.54391 3.90738C1.17207 5.96997 0.990228 8.06232 1.00067 10.1581C0.987499 12.27 1.16958 14.3786 1.5446 16.457C1.69929 17.0005 1.99156 17.4949 2.39318 17.8924C2.7948 18.2899 3.29217 18.5771 3.83722 18.7262C5.86992 19.2702 14 19.2702 14 19.2702C14 19.2702 22.1301 19.2702 24.1628 18.7262C24.7191 18.5689 25.2241 18.2675 25.6266 17.8525C26.0292 17.4375 26.315 16.9236 26.4554 16.3628C26.8246 14.3156 27.0067 12.239 26.9993 10.1588C27.0125 8.04691 26.8297 5.93831 26.4547 3.85994Z" stroke="white" stroke-width="1.5" stroke-linecap="round" stroke-linejoin="round"/>
<path d="M11.3409 14.0227L18.1355 10.1588L11.3409 6.29422V14.0227Z" stroke="white" stroke-width="1.5" stroke-linecap="round" stroke-linejoin="round"/>
</svg>
